<svg xmlns="http://www.w3.org/2000/svg" xmlns:xlink="http://www.w3.org/1999/xlink" width="14px" height="21px" viewBox="0 0 14 21">
<path fill-rule="evenodd" fill="#ffffff" d="M11.539551,11.654541 C11.539551,11.654541 4.751343,18.532349 4.751343,18.532349 C4.126465,19.1651 3.1134033,19.1651 2.4885254,18.532349 C1.8637695,17.89914 1.8637695,16.87265 2.4885254,16.239899 C2.4885254,16.239899 9.276855,9.363007 9.276855,9.363007 C9.901611,8.72934 10.914673,8.72934 11.539551,9.363007 C12.164429,9.9953 12.164429,11.022247 11.539551,11.654541 ZM11.539551,11.654541 C10.914673,12.2872925 9.901611,12.2872925 9.276855,11.654541 C9.276855,11.654541 2.4885254,4.7785645 2.4885254,4.7785645 C1.8637695,4.1448975 1.8637695,3.1184082 2.4885254,2.4856567 C3.1134033,1.8524475 4.126465,1.8524475 4.751343,2.4856567 C4.751343,2.4856567 11.539551,9.363007 11.539551,9.363007 C12.164429,9.9953 12.164429,11.022247 11.539551,11.654541 Z"></path>
</svg>