<svg xmlns="http://www.w3.org/2000/svg" xmlns:xlink="http://www.w3.org/1999/xlink" width="10px" height="17px" viewBox="0 0 10 17" fill="#ffffff">
<path fill-rule="evenodd" fill="#ffffff" d="M2.4602356,9.341675 C2.4602356,9.341675 9.248413,2.4656982 9.248413,2.4656982 C9.8732605,1.8320312 10.886414,1.8320312 11.511261,2.4656982 C12.135986,3.097992 12.135986,4.1240234 11.511261,4.7572327 C11.511261,4.7572327 4.7229614,11.634125 4.7229614,11.634125 C4.098114,12.267792 3.085083,12.267792 2.4602356,11.634125 C1.8353882,11.001831 1.8353882,9.974884 2.4602356,9.341675 ZM2.4602356,9.341675 C3.085083,8.708466 4.098114,8.708466 4.7229614,9.341675 C4.7229614,9.341675 11.511261,16.219482 11.511261,16.219482 C12.135986,16.85315 12.135986,17.878723 11.511261,18.511475 C10.886414,19.144714 9.8732605,19.144714 9.248413,18.511475 C9.248413,18.511475 2.4602356,11.634125 2.4602356,11.634125 C1.8353882,11.001831 1.8353882,9.974884 2.4602356,9.341675 Z"></path>
</svg>