<!DOCTYPE svg PUBLIC "-//W3C//DTD SVG 20010904//EN" "http://www.w3.org/TR/2001/REC-SVG-20010904/DTD/svg10.dtd">
<svg version="1.0" xmlns="http://www.w3.org/2000/svg" width="109px" height="40px" viewBox="0 0 1090 400" preserveAspectRatio="xMidYMid meet">
<g id="layer101" fill="#35535d" stroke="none">
 <path d="M538 386 c-45 -18 -88 -45 -88 -57 0 -5 13 -3 28 5 78 40 262 45 371 9 65 -20 145 -89 121 -102 -45 -24 -136 -36 -275 -36 -159 0 -215 10 -338 60 -34 13 -63 22 -66 19 -6 -6 52 -56 109 -93 145 -95 382 -106 540 -26 l50 25 0 -23 c0 -122 -329 -181 -529 -95 -25 11 -96 53 -158 94 -131 87 -179 110 -250 120 -44 5 -53 4 -53 -9 0 -18 21 -27 61 -27 44 0 91 -23 211 -101 190 -124 283 -155 443 -146 193 10 298 69 312 176 4 30 14 49 36 67 36 31 30 40 -15 21 -34 -14 -34 -14 -61 24 -18 25 -50 49 -95 71 -63 31 -73 33 -192 35 -88 2 -136 -2 -162 -11z"/>
 </g>
<g id="layer102" fill="#657c84" stroke="none">
 <path d="M555 390 c-14 -7 -8 -8 20 -3 22 3 42 7 44 9 9 8 -45 2 -64 -6z"/>
 <path d="M753 393 c9 -2 25 -2 35 0 9 3 1 5 -18 5 -19 0 -27 -2 -17 -5z"/>
 <path d="M483 359 c-39 -25 -44 -44 -8 -27 13 6 22 15 18 21 -3 5 3 7 13 4 11 -3 37 -2 59 3 39 9 39 9 -10 5 -35 -3 -45 -2 -35 5 8 5 11 10 5 10 -5 0 -25 -10 -42 -21z"/>
 <path d="M637 373 c18 -2 50 -2 70 0 21 2 7 4 -32 4 -38 0 -55 -2 -38 -4z"/>
 <path d="M751 366 c2 -2 24 -6 49 -9 30 -4 38 -3 25 3 -19 8 -83 14 -74 6z"/>
 <path d="M900 357 c0 -2 19 -17 43 -32 23 -16 37 -22 30 -14 -12 15 -73 53 -73 46z"/>
 <path d="M940 291 c49 -47 47 -55 -23 -67 -21 -3 -36 -8 -33 -11 7 -8 106 18 106 27 0 13 -50 69 -73 82 -11 6 -1 -8 23 -31z"/>
 <path d="M0 274 c0 -15 2 -16 9 -5 6 10 20 11 52 6 61 -10 130 -43 224 -107 73 -50 138 -89 125 -75 -3 3 -50 35 -105 72 -122 82 -184 112 -252 121 -48 6 -53 5 -53 -12z"/>
 <path d="M290 284 c0 -16 144 -124 164 -124 5 0 -18 18 -51 39 -52 34 -84 61 -70 61 2 0 30 -9 62 -20 87 -30 91 -23 5 9 -41 15 -83 31 -92 36 -10 4 -18 3 -18 -1z"/>
 <path d="M995 268 c14 -23 20 -26 37 -17 28 15 32 6 8 -16 -11 -10 -20 -29 -20 -42 0 -33 -23 -84 -48 -106 -11 -10 -47 -29 -79 -43 -32 -13 -51 -24 -43 -24 25 0 114 46 137 71 25 28 43 70 43 104 0 14 13 34 31 50 17 14 28 29 24 33 -4 4 -10 1 -12 -6 -3 -6 -9 -10 -14 -7 -5 4 -16 2 -26 -3 -12 -7 -21 -4 -35 12 -19 21 -19 21 -3 -6z"/>
 <path d="M38 253 c12 -2 30 -2 40 0 9 3 -1 5 -23 4 -22 0 -30 -2 -17 -4z"/>
 <path d="M137 231 c23 -11 74 -41 115 -68 83 -56 108 -71 93 -56 -15 15 -155 108 -192 127 -18 9 -38 16 -45 16 -7 0 6 -9 29 -19z"/>
 <path d="M500 210 c25 -8 87 -13 79 -6 -2 2 -26 6 -54 9 -34 4 -42 3 -25 -3z"/>
 <path d="M823 203 c9 -2 25 -2 35 0 9 3 1 5 -18 5 -19 0 -27 -2 -17 -5z"/>
 <path d="M643 193 c32 -2 81 -2 110 0 29 2 3 3 -58 3 -60 0 -84 -1 -52 -3z"/>
 <path d="M974 188 c-4 -6 -3 -8 4 -4 6 3 12 -3 15 -16 4 -20 4 -19 6 5 1 28 -12 36 -25 15z"/>
 <path d="M870 148 c-32 -12 -98 -23 -160 -28 l-105 -7 80 -1 c83 -2 187 17 233 43 36 19 19 17 -48 -7z"/>
 <path d="M495 145 c17 -8 37 -14 45 -14 8 0 -1 7 -20 14 -46 18 -64 17 -25 0z"/>
 <path d="M964 109 c-3 -6 -30 -22 -58 -35 -28 -13 -45 -24 -38 -24 19 0 86 36 101 54 8 9 11 16 8 16 -3 0 -9 -5 -13 -11z"/>
 <path d="M360 95 c0 -7 101 -57 106 -53 2 2 -21 16 -51 31 -30 15 -55 25 -55 22z"/>
 <path d="M525 40 c19 -8 73 -14 64 -6 -2 2 -22 6 -44 9 -28 5 -34 4 -20 -3z"/>
 <path d="M633 23 c20 -2 54 -2 75 0 20 2 3 4 -38 4 -41 0 -58 -2 -37 -4z"/>
 <path d="M685 10 l-100 -6 95 -1 c52 0 109 3 125 7 36 9 29 9 -120 0z"/>
 </g>
<g id="layer103" fill="#889aa0" stroke="none">
 <path d="M483 359 c-34 -21 -45 -43 -18 -33 8 4 15 10 15 16 0 5 5 6 12 2 7 -4 8 -3 4 5 -5 8 -1 11 16 8 12 -2 17 -2 9 0 -12 4 -12 6 0 14 8 5 10 9 4 9 -5 0 -25 -10 -42 -21z"/>
 <path d="M648 373 c18 -2 45 -2 60 0 15 2 0 4 -33 4 -33 0 -45 -2 -27 -4z"/>
 <path d="M940 291 c36 -34 42 -44 30 -51 -9 -6 -10 -10 -3 -10 24 0 23 19 -3 49 -14 17 -35 36 -47 43 -11 6 -1 -8 23 -31z"/>
 <path d="M0 273 c0 -12 3 -14 8 -7 4 7 18 14 32 17 21 4 20 4 -7 6 -25 1 -33 -3 -33 -16z"/>
 <path d="M105 266 c22 -7 55 -20 73 -30 17 -9 32 -14 32 -11 0 10 -104 55 -125 54 -11 0 -2 -6 20 -13z"/>
 <path d="M323 264 c0 -7 12 -24 26 -36 l26 -23 -23 26 c-17 19 -20 28 -11 31 10 3 9 6 -2 10 -10 4 -16 1 -16 -8z"/>
 <path d="M38 253 c12 -2 30 -2 40 0 9 3 -1 5 -23 4 -22 0 -30 -2 -17 -4z"/>
 <path d="M385 245 c17 -8 37 -14 45 -14 8 0 -1 7 -20 14 -46 18 -64 17 -25 0z"/>
 <path d="M1036 231 c-11 -12 -16 -30 -13 -48 l4 -28 2 29 c0 16 8 38 18 48 9 10 14 18 11 18 -3 0 -13 -9 -22 -19z"/>
 <path d="M220 217 c0 -2 19 -17 43 -32 23 -16 37 -22 30 -14 -12 15 -73 53 -73 46z"/>
 <path d="M190 208 c0 -5 39 -32 133 -92 15 -10 27 -16 27 -14 0 5 -39 32 -132 92 -16 10 -28 16 -28 14z"/>
 <path d="M823 203 c9 -2 25 -2 35 0 9 3 1 5 -18 5 -19 0 -27 -2 -17 -5z"/>
 <path d="M648 193 c28 -2 76 -2 105 0 28 2 5 3 -53 3 -58 0 -81 -1 -52 -3z"/>
 <path d="M974 188 c-4 -6 -3 -8 4 -4 6 3 12 -3 15 -16 4 -20 4 -19 6 5 1 28 -12 36 -25 15z"/>
 <path d="M870 145 c-19 -7 -28 -14 -20 -14 8 0 29 6 45 14 39 17 21 18 -25 0z"/>
 <path d="M1005 130 c-3 -11 -23 -34 -43 -51 -20 -17 -27 -26 -16 -20 24 12 74 67 74 82 0 16 -8 10 -15 -11z"/>
 <path d="M653 113 c26 -2 67 -2 90 0 23 2 2 3 -48 3 -49 0 -68 -1 -42 -3z"/>
 <path d="M360 95 c0 -7 101 -57 106 -53 2 2 -21 16 -51 31 -30 15 -55 25 -55 22z"/>
 <path d="M633 23 c20 -2 54 -2 75 0 20 2 3 4 -38 4 -41 0 -58 -2 -37 -4z"/>
 <path d="M638 3 c29 -2 74 -2 100 0 26 2 2 3 -53 3 -55 0 -76 -1 -47 -3z"/>
 </g>
<g id="layer104" fill="#ced5d8" stroke="none">
 <path d="M13 283 c9 -2 25 -2 35 0 9 3 1 5 -18 5 -19 0 -27 -2 -17 -5z"/>
 <path d="M1024 216 c-3 -8 -4 -25 -2 -38 3 -17 5 -13 9 15 5 38 2 47 -7 23z"/>
 <path d="M657 193 c18 -2 50 -2 70 0 21 2 7 4 -32 4 -38 0 -55 -2 -38 -4z"/>
 <path d="M623 113 c9 -2 25 -2 35 0 9 3 1 5 -18 5 -19 0 -27 -2 -17 -5z"/>
 <path d="M733 113 c9 -2 25 -2 35 0 9 3 1 5 -18 5 -19 0 -27 -2 -17 -5z"/>
 <path d="M974 88 l-29 -33 33 29 c17 17 32 31 32 33 0 8 -8 1 -36 -29z"/>
 <path d="M643 23 c9 -2 25 -2 35 0 9 3 1 5 -18 5 -19 0 -27 -2 -17 -5z"/>
 <path d="M733 3 c9 -2 25 -2 35 0 9 3 1 5 -18 5 -19 0 -27 -2 -17 -5z"/>
 </g>

</svg>