<!DOCTYPE svg PUBLIC "-//W3C//DTD SVG 20010904//EN" "http://www.w3.org/TR/2001/REC-SVG-20010904/DTD/svg10.dtd">
<svg version="1.0" xmlns="http://www.w3.org/2000/svg" width="109px" height="40px" viewBox="0 0 1090 400" preserveAspectRatio="xMidYMid meet">
<g id="layer101" fill="#35535d" stroke="none">
 <path d="M253 386 c-65 -21 -127 -61 -153 -99 -23 -34 -24 -34 -58 -20 -45 19 -52 10 -15 -21 22 -18 32 -37 36 -67 14 -107 119 -166 312 -176 160 -9 253 22 443 146 120 78 167 101 211 101 40 0 61 9 61 27 0 13 -9 14 -52 9 -72 -10 -120 -33 -251 -120 -164 -109 -239 -136 -375 -136 -171 1 -312 62 -312 137 l0 23 50 -25 c158 -80 395 -69 540 26 57 37 115 87 109 93 -3 3 -32 -6 -66 -19 -123 -50 -179 -60 -338 -60 -139 0 -230 12 -275 36 -24 13 56 82 121 102 110 36 293 31 372 -9 22 -12 28 -13 25 -3 -3 8 -27 25 -53 39 -44 22 -63 25 -170 27 -79 2 -134 -2 -162 -11z"/>
 </g>
<g id="layer102" fill="#657c84" stroke="none">
 <path d="M303 393 c9 -2 25 -2 35 0 9 3 1 5 -18 5 -19 0 -27 -2 -17 -5z"/>
 <path d="M471 396 c2 -2 22 -6 44 -9 28 -5 34 -4 20 3 -19 8 -73 14 -64 6z"/>
 <path d="M377 373 c18 -2 50 -2 70 0 21 2 7 4 -32 4 -38 0 -55 -2 -38 -4z"/>
 <path d="M570 370 c10 -7 0 -8 -35 -5 -49 4 -49 4 -10 -5 22 -5 48 -6 59 -3 10 3 16 1 13 -4 -4 -6 5 -15 18 -21 37 -17 30 3 -9 27 -33 21 -66 30 -36 11z"/>
 <path d="M265 360 c-13 -6 -5 -7 25 -3 25 3 47 7 49 9 9 8 -55 2 -74 -6z"/>
 <path d="M147 335 c-20 -14 -37 -28 -37 -31 0 -2 18 8 40 22 35 23 47 34 37 34 -1 0 -19 -11 -40 -25z"/>
 <path d="M139 291 c-22 -21 -39 -43 -39 -49 0 -11 98 -38 106 -29 3 3 -12 8 -33 11 -69 12 -72 20 -25 65 24 23 40 41 36 41 -3 0 -24 -17 -45 -39z"/>
 <path d="M88 271 c-9 -15 -16 -17 -30 -10 -10 6 -22 7 -27 4 -5 -3 -11 1 -14 7 -2 7 -8 10 -12 6 -4 -4 7 -19 24 -33 18 -16 31 -36 31 -50 0 -34 18 -76 43 -104 23 -25 112 -71 137 -71 8 0 -11 11 -43 24 -32 14 -68 33 -79 43 -25 22 -48 73 -48 106 0 13 -9 32 -20 42 -24 22 -20 31 8 16 17 -9 23 -6 36 14 9 14 14 25 11 25 -3 0 -10 -9 -17 -19z"/>
 <path d="M777 284 c-3 -4 -41 -19 -84 -35 -43 -15 -73 -28 -67 -28 6 -1 37 8 69 19 32 11 60 20 62 20 14 0 -18 -27 -70 -61 -33 -21 -56 -39 -51 -39 19 0 164 108 164 123 0 9 -14 9 -23 1z"/>
 <path d="M989 276 c-25 -6 -67 -25 -94 -40 -47 -28 -205 -133 -215 -144 -13 -13 54 27 125 76 94 64 163 97 224 107 32 5 46 4 52 -6 7 -11 9 -10 9 4 0 20 -33 22 -101 3z"/>
 <path d="M1018 253 c12 -2 30 -2 40 0 9 3 -1 5 -23 4 -22 0 -30 -2 -17 -4z"/>
 <path d="M909 217 c-75 -46 -169 -109 -169 -114 0 -5 11 1 98 60 41 27 92 57 115 68 23 10 35 19 26 19 -8 0 -40 -15 -70 -33z"/>
 <path d="M540 210 c-34 -7 -34 -7 -5 -8 17 0 41 4 55 8 33 11 0 11 -50 0z"/>
 <path d="M233 203 c9 -2 25 -2 35 0 9 3 1 5 -18 5 -19 0 -27 -2 -17 -5z"/>
 <path d="M91 173 c2 -24 2 -25 6 -5 3 13 9 19 15 16 7 -4 8 -2 4 4 -13 21 -26 13 -25 -15z"/>
 <path d="M343 193 c32 -2 81 -2 110 0 29 2 3 3 -58 3 -60 0 -84 -1 -52 -3z"/>
 <path d="M172 156 c44 -26 148 -46 233 -44 l80 1 -105 8 c-92 6 -127 13 -215 43 -11 4 -8 0 7 -8z"/>
 <path d="M570 145 c-19 -7 -28 -14 -20 -14 8 0 29 6 45 14 39 17 21 18 -25 0z"/>
 <path d="M120 107 c15 -20 82 -57 102 -57 7 0 -7 10 -32 21 -24 11 -54 28 -65 37 -19 16 -19 16 -5 -1z"/>
 <path d="M670 70 c-30 -16 -51 -29 -47 -30 10 0 107 49 107 55 0 7 1 7 -60 -25z"/>
 <path d="M525 40 c-27 -7 -28 -8 -5 -8 14 0 34 3 45 8 25 11 2 11 -40 0z"/>
 <path d="M383 23 c20 -2 54 -2 75 0 20 2 3 4 -38 4 -41 0 -58 -2 -37 -4z"/>
 <path d="M285 9 c29 -6 230 -11 210 -4 -5 2 -62 5 -125 7 -63 3 -101 1 -85 -3z"/>
 </g>
<g id="layer103" fill="#889aa0" stroke="none">
 <path d="M388 373 c18 -2 45 -2 60 0 15 2 0 4 -33 4 -33 0 -45 -2 -27 -4z"/>
 <path d="M569 371 c12 -8 12 -10 0 -14 -8 -2 -3 -2 9 0 17 3 21 0 16 -8 -4 -8 -3 -9 4 -5 7 4 12 3 12 -2 0 -6 7 -12 15 -16 8 -3 15 -1 15 3 0 10 -62 51 -76 51 -5 0 -3 -4 5 -9z"/>
 <path d="M138 290 c-37 -37 -43 -60 -15 -60 7 0 6 4 -3 10 -12 7 -6 17 28 49 24 23 40 41 36 41 -3 0 -24 -18 -46 -40z"/>
 <path d="M1050 283 c14 -3 28 -10 32 -17 5 -7 8 -5 8 7 0 13 -8 17 -32 16 -28 -2 -29 -2 -8 -6z"/>
 <path d="M750 270 c-12 -8 -13 -10 -1 -10 10 0 7 -8 -10 -27 l-24 -28 26 23 c14 12 26 29 26 37 0 8 -1 15 -1 15 -1 0 -8 -5 -16 -10z"/>
 <path d="M933 255 c-29 -13 -53 -27 -53 -30 0 -3 15 2 33 11 17 10 50 23 72 30 22 7 31 13 20 13 -11 1 -44 -10 -72 -24z"/>
 <path d="M680 245 c-19 -7 -28 -14 -20 -14 8 0 29 6 45 14 39 17 21 18 -25 0z"/>
 <path d="M1018 253 c12 -2 30 -2 40 0 9 3 -1 5 -23 4 -22 0 -30 -2 -17 -4z"/>
 <path d="M42 235 c9 -11 18 -33 21 -50 l4 -30 2 31 c1 21 -6 37 -21 50 -23 19 -23 19 -6 -1z"/>
 <path d="M827 195 c-20 -14 -37 -28 -37 -31 0 -2 18 8 40 22 35 23 47 34 37 34 -1 0 -19 -11 -40 -25z"/>
 <path d="M233 203 c9 -2 25 -2 35 0 9 3 1 5 -18 5 -19 0 -27 -2 -17 -5z"/>
 <path d="M825 164 c-71 -47 -115 -83 -60 -49 91 56 145 95 132 95 -1 0 -34 -21 -72 -46z"/>
 <path d="M91 173 c2 -24 2 -25 6 -5 3 13 9 19 15 16 7 -4 8 -2 4 4 -13 21 -26 13 -25 -15z"/>
 <path d="M338 193 c28 -2 76 -2 105 0 28 2 5 3 -53 3 -58 0 -81 -1 -52 -3z"/>
 <path d="M195 145 c17 -8 37 -14 45 -14 8 0 -1 7 -20 14 -46 18 -64 17 -25 0z"/>
 <path d="M70 143 c0 -16 48 -72 74 -84 13 -6 10 -2 -8 12 -15 12 -37 36 -47 53 -10 17 -19 26 -19 19z"/>
 <path d="M353 113 c26 -2 67 -2 90 0 23 2 2 3 -48 3 -49 0 -68 -1 -42 -3z"/>
 <path d="M670 70 c-30 -16 -51 -29 -47 -30 10 0 107 49 107 55 0 7 1 7 -60 -25z"/>
 <path d="M383 23 c20 -2 54 -2 75 0 20 2 3 4 -38 4 -41 0 -58 -2 -37 -4z"/>
 <path d="M358 3 c29 -2 74 -2 100 0 26 2 2 3 -53 3 -55 0 -76 -1 -47 -3z"/>
 </g>
<g id="layer104" fill="#ced5d8" stroke="none">
 <path d="M1043 283 c9 -2 25 -2 35 0 9 3 1 5 -18 5 -19 0 -27 -2 -17 -5z"/>
 <path d="M59 192 c5 -34 6 -35 9 -8 2 16 0 32 -5 37 -5 5 -7 -7 -4 -29z"/>
 <path d="M357 193 c18 -2 50 -2 70 0 21 2 7 4 -32 4 -38 0 -55 -2 -38 -4z"/>
 <path d="M80 117 c0 -2 15 -16 33 -33 l32 -29 -29 33 c-28 30 -36 37 -36 29z"/>
 <path d="M323 113 c9 -2 25 -2 35 0 9 3 1 5 -18 5 -19 0 -27 -2 -17 -5z"/>
 <path d="M433 113 c9 -2 25 -2 35 0 9 3 1 5 -18 5 -19 0 -27 -2 -17 -5z"/>
 <path d="M413 23 c9 -2 25 -2 35 0 9 3 1 5 -18 5 -19 0 -27 -2 -17 -5z"/>
 <path d="M323 3 c9 -2 25 -2 35 0 9 3 1 5 -18 5 -19 0 -27 -2 -17 -5z"/>
 </g>

</svg>